{"title":"Wildschut 1985 DVDrip Dutch Klam","uid":9602031,"size":1257568416,"categoryP":"video","categoryS":"movies","magnet":"?xt=urn:btih:530f583b36c1d8ddfd88f389a039f473bb7d9fff&amp;dn=Wildschut+1985+DVDrip+Dutch+Klam&amp;tr=udp%3A%2F%2Ftracker.openbittorrent.com%3A80&amp;tr=udp%3A%2F%2Fopen.demonii.com%3A1337&amp;tr=udp%3A%2F%2Ftracker.coppersurfer.tk%3A6969&amp;tr=udp%3A%2F%2Fexodus.desync.com%3A6969","seeders":1,"leechers":1,"uploader":"Klambake","files":-1,"time":1392134836,"description":"With: Hidde Maas, Jack Monkau and Josse de Pauw\n\nJim en Charlie zijn twee gangsters die op de vlucht zijn. Ze duiken onder op de hoeve van de familie Deleye, die Wildschut heet. Ze voeren daar een schrikbewind over de hele familie. Inmiddels heeft de politiechef een tip gekregen, dat de criminelen in de buurt zijn gezien. Hij denkt meteen aan Wildschut, maar zijn eerste bezoek levert niets op. Hij blijft echter terugkomen wat de spanningen behoorlijk op doen lopen.\n\nDutch spoken,\nAn isolated farmhouse is chosen as a hide-out by Jim and Charlie after an armed robbery. The Deleye family are forced to accept the situation under Jim's brutal domination. Badly wounded ...\n &lt;a href=&quot;\nhttp://www.imdb.com/title/tt0090325&quot; rel=&quot;nofollow&quot; target=&quot;_NEW&quot;&gt;\nhttp://www.imdb.com/title/tt0090325&lt;/a&gt;\t\n\n--------------------- Dutch Friends 4ever ---------------------\n---------------------------------------------------------------\n- Bezoek ook eens mijn vrienden op: &lt;a href=&quot; http://www.Film-Test.nl&quot; rel=&quot;nofollow&quot; target=&quot;_NEW&quot;&gt; http://www.Film-Test.nl&lt;/a&gt; --\n----- voor mijn Nederlandse Sync. ondertitels ---- en meer ----\n------- http://www.Film-Test.nl ---- Over Films en meer -------\n---------------------------------------------------------------\n\nGeneral:\n\nComplete name                    : WildschutWildschut.avi\nFormat                           : AVI\nFormat/Info                      : Audio Video Interleave\nFile size                        : 1.17 GiB\nDuration                         : 1h 29mn\nOverall bit rate                 : 1 865 Kbps\n\nVideo:\n\nFormat                           : MPEG-4 Visual\nFormat profile                   : Simple@L3\nFormat settings, BVOP            : No\nFormat settings, QPel            : No\nFormat settings, GMC             : No warppoints\nFormat settings, Matrix          : Default (H.263)\nCodec ID                         : XVID\nCodec ID/Hint                    : XviD\nDuration                         : 1h 29mn\nBit rate                         : 1 662 Kbps\nWidth                            : 640 pixels\nHeight                           : 480 pixels\nDisplay aspect ratio             : 4:3\nFrame rate                       : 25.000 fps\nColor space                      : YUV\nChroma subsampling               : 4:2:0\nBit depth                        : 8 bits\nScan type                        : Progressive\nCompression mode                 : Lossy\nBits/(Pixel*Frame)               : 0.216\nStream size                      : 1.04 GiB (89%)\nWriting library                  : XviD 1.1.2 (UTC 2006-11-01)\n\nAudio:\n\nFormat                           : AC-3\nFormat/Info                      : Audio Coding 3\nMode extension                   : CM (complete main)\nCodec ID                         : 2000\nDuration                         : 1h 29mn\nBit rate mode                    : Constant\nBit rate                         : 192 Kbps\nChannel(s)                       : 2 channels\nChannel positions                : Front: L R\nSampling rate                    : 48.0 KHz\nBit depth                        : 16 bits\nCompression mode                 : Lossy\nStream size                      : 123 MiB (10%)\nAlignment                        : Aligned on interleaves\nInterleave, duration             : 32 ms (0.80 video frame)\nInterleave, preload duration     : 64 ms\n","torrent":{"xt":"urn:btih:530f583b36c1d8ddfd88f389a039f473bb7d9fff","amp;dn":"Wildschut+1985+DVDrip+Dutch+Klam","amp;tr":["udp%3A%2F%2Ftracker.openbittorrent.com%3A80","udp%3A%2F%2Fopen.demonii.com%3A1337","udp%3A%2F%2Ftracker.coppersurfer.tk%3A6969","udp%3A%2F%2Fexodus.desync.com%3A6969"],"infoHash":"530f583b36c1d8ddfd88f389a039f473bb7d9fff","infoHashBuffer":{"type":"Buffer","data":[83,15,88,59,54,193,216,221,253,136,243,137,160,57,244,115,187,125,159,255]},"announce":[],"urlList":[]}}